<?xml version="1.0" encoding="UTF-8"?>
<svg id="Layer_1" xmlns="http://www.w3.org/2000/svg" version="1.1" viewBox="0 0 1203.9 251.2">
  <!-- Generator: Adobe Illustrator 30.1.0, SVG Export Plug-In . SVG Version: 2.1.1 Build 136)  -->
  <defs>
    <style>
      .st0 {
        fill: #e76a25;
      }

      .st1 {
        fill: #ffffff;
      }
    </style>
  </defs>
  <path class="st1" d="M154.5,73h23.1v164.9h-23.1l-.8-30.7c-5.4,10.4-12.9,18.9-22.6,25.3-9.7,6.4-21.2,9.6-34.6,9.6s-23.4-2.3-34-6.8c-10.6-4.6-19.8-10.9-27.9-18.9-8-8-14.3-17.3-18.8-27.9-4.5-10.6-6.8-21.9-6.8-34s2.2-23,6.7-33.5,10.6-19.6,18.5-27.5c7.9-7.9,17-14.1,27.4-18.6,10.4-4.5,21.5-6.7,33.4-6.7s25.7,3.3,36,9.8c10.2,6.5,18.4,15.1,24.4,25.6l-.8-30.8ZM95.9,219.8c11.8,0,21.9-2.9,30.3-8.7,8.5-5.8,15-13.5,19.5-23.3,4.6-9.8,6.8-20.6,6.8-32.3s-2.3-23-6.9-32.7c-4.6-9.7-11.2-17.5-19.6-23.2-8.5-5.7-18.5-8.6-30.2-8.6s-22.3,2.9-31.9,8.7c-9.6,5.8-17.3,13.6-22.9,23.3-5.7,9.8-8.5,20.6-8.5,32.5s2.9,22.8,8.7,32.6c5.8,9.7,13.5,17.5,23.2,23.2,9.6,5.7,20.1,8.6,31.4,8.6Z"/>
  <path class="st1" d="M210.6,237.9V73h23.1v22.8c5.8-8.4,13.4-15,22.8-20,9.3-4.9,19.5-7.4,30.5-7.4s12.5.8,18.5,2.5l-9.4,22.9c-4.6-1.4-9.1-2.1-13.5-2.1-8.9,0-17.1,2.2-24.5,6.6-7.4,4.4-13.3,10.3-17.7,17.6-4.4,7.4-6.6,15.6-6.6,24.6v97.5h-23.1Z"/>
  <path class="st1" d="M412.7,96.1h-39.4l-.2,141.8h-23.1l.2-141.8h-29.8v-23.1h29.8l-.2-51.8h23.1l.2,51.8h39.4v23.1Z"/>
  <path class="st0" d="M442.3,237.9V7h23.1v207.8h106v23.1h-129.1Z"/>
  <path class="st0" d="M663.2,242.2c-15.2,0-29-3.9-41.5-11.7-12.5-7.8-22.4-18.3-29.8-31.4-7.4-13.1-11.1-27.7-11.1-43.6s2.1-23.4,6.4-33.9c4.3-10.5,10.2-19.7,17.7-27.7,7.5-8,16.3-14.2,26.3-18.7,10-4.5,20.7-6.8,32-6.8s29,3.9,41.5,11.7c12.5,7.8,22.4,18.3,29.8,31.5,7.4,13.2,11.1,27.8,11.1,43.9s-2.1,23.2-6.4,33.6c-4.3,10.4-10.2,19.7-17.7,27.6-7.5,8-16.3,14.2-26.2,18.7-10,4.5-20.6,6.8-32.1,6.8ZM663.2,219.1c11.2,0,21.3-2.9,30.3-8.8,9-5.9,16.1-13.7,21.3-23.3,5.2-9.7,7.8-20.2,7.8-31.5s-2.6-22.2-7.9-31.9c-5.3-9.7-12.4-17.5-21.4-23.3-9-5.8-19-8.7-30.1-8.7s-21.3,2.9-30.3,8.8c-9,5.9-16.1,13.7-21.3,23.3-5.2,9.7-7.8,20.3-7.8,31.8s2.7,22.6,8.1,32.2c5.4,9.6,12.6,17.3,21.6,22.9,9,5.7,18.9,8.5,29.7,8.5Z"/>
  <path class="st0" d="M762.2,237.9L806.9,7h16.8l64.6,169.9L952.7,7h16.8l44.9,230.9h-23.6l-34.1-176.6-61,161.4h-14.8l-61-161.4-34.1,176.6h-23.4Z"/>
  <path class="st0" d="M1113.3,242.2c-15.2,0-29-3.9-41.5-11.7-12.5-7.8-22.4-18.3-29.8-31.4-7.4-13.1-11.1-27.7-11.1-43.6s2.1-23.4,6.4-33.9c4.3-10.5,10.2-19.7,17.7-27.7,7.5-8,16.3-14.2,26.3-18.7,10-4.5,20.7-6.8,32-6.8s29,3.9,41.5,11.7c12.5,7.8,22.4,18.3,29.8,31.5,7.4,13.2,11.1,27.8,11.1,43.9s-2.1,23.2-6.4,33.6c-4.3,10.4-10.2,19.7-17.7,27.6-7.5,8-16.3,14.2-26.2,18.7-10,4.5-20.6,6.8-32.1,6.8ZM1113.3,219.1c11.2,0,21.3-2.9,30.3-8.8,9-5.9,16.1-13.7,21.3-23.3,5.2-9.7,7.8-20.2,7.8-31.5s-2.6-22.2-7.9-31.9c-5.3-9.7-12.4-17.5-21.4-23.3-9-5.8-19-8.7-30.1-8.7s-21.3,2.9-30.3,8.8c-9,5.9-16.1,13.7-21.3,23.3-5.2,9.7-7.8,20.3-7.8,31.8s2.7,22.6,8.1,32.2c5.4,9.6,12.6,17.3,21.6,22.9,9,5.7,18.9,8.5,29.7,8.5Z"/>
</svg>