<?xml version="1.0" encoding="UTF-8"?>
<svg id="Layer_1" xmlns="http://www.w3.org/2000/svg" version="1.1" viewBox="0 0 1300 300">
  <!-- Generator: Adobe Illustrator 30.1.0, SVG Export Plug-In . SVG Version: 2.1.1 Build 136)  -->
  <defs>
    <style>
      .st0 {
        stroke-linecap: round;
        stroke-linejoin: round;
        stroke-width: 8.5px;
      }

      .st0, .st1 {
        stroke: #000;
      }

      .st2 {
        fill: #707070;
      }

      .st3 {
        fill: #0f3e56;
      }

      .st4 {
        fill: #fff;
      }

      .st1 {
        stroke-miterlimit: 10;
      }
    </style>
  </defs>
  <path class="st2" d="M1288.7,11.3v277.3H11.3V11.3h1277.3M1300,0H0v300h1300V0h0Z"/>
  <g>
    <rect class="st4" x="25.7" y="24.5" width="1248.5" height="251"/>
    <path d="M1268.5,30.2v239.5H31.5V30.2h1237M1280,18.8H20v262.5h1260V18.8h0Z"/>
  </g>
  <g>
    <rect class="st3" x="650.7" y="24.4" width="623.7" height="251.2"/>
    <path d="M1268.7,30.1v239.8h-612.3V30.1h612.3M1280,18.8h-635v262.5h635V18.8h0Z"/>
  </g>
  <g>
    <line class="st0" x1="163.2" y1="87.9" x2="163.2" y2="71"/>
    <circle class="st0" cx="163.2" cy="150" r="39.5"/>
    <line class="st0" x1="118.1" y1="104.8" x2="106.8" y2="93.6"/>
    <line class="st0" x1="118.1" y1="195.2" x2="106.8" y2="206.4"/>
    <line class="st0" x1="208.4" y1="104.8" x2="219.7" y2="93.6"/>
    <line class="st0" x1="208.4" y1="195.2" x2="219.7" y2="206.4"/>
    <line class="st0" x1="101.1" y1="150" x2="84.2" y2="150"/>
    <line class="st0" x1="163.2" y1="212.1" x2="163.2" y2="229"/>
    <line class="st0" x1="225.3" y1="150" x2="242.2" y2="150"/>
  </g>
  <g>
    <path class="st1" d="M317.8,190.7v-79.2h14.7v67.7h35.1v11.5h-49.8Z"/>
    <path class="st1" d="M375.6,190.7v-56.1h14.7v56.1h-14.7ZM376,125.3v-14.3h14.3v14.3h-14.3Z"/>
    <path class="st1" d="M430.4,217c-4.8,0-9.4-.8-13.7-2.4-4.3-1.6-8-4.1-11-7.4-3-3.4-4.8-7.7-5.4-13h14.6c.7,3.1,2.4,5.5,5.3,7.4,2.8,1.8,6.2,2.7,10,2.7s5.5-.6,7.9-1.8c2.4-1.2,4.3-3,5.7-5.4,1.4-2.4,2.1-5.4,2.1-9.1v-7c-1.1,1.8-2.6,3.5-4.4,5-1.8,1.5-3.9,2.7-6.4,3.7-2.5.9-5.3,1.4-8.4,1.4-5.4,0-10.2-1.3-14.4-3.8-4.3-2.6-7.6-6-10.1-10.4-2.5-4.4-3.7-9.3-3.7-14.7s1.2-10.4,3.7-14.8c2.5-4.3,5.8-7.8,10.1-10.3,4.3-2.5,9.1-3.8,14.4-3.8s8.1.9,11.4,2.7c3.3,1.8,5.9,3.9,7.8,6.5v-7.8h14.7v52.6c0,6.5-1.4,11.9-4.1,16.3-2.8,4.4-6.4,7.8-11,10-4.6,2.3-9.6,3.4-15,3.4ZM429.5,178.3c3.2,0,6.1-.7,8.4-2.2,2.4-1.4,4.2-3.4,5.6-5.8,1.4-2.4,2-5.1,2-8.1s-.7-6-2-8.4c-1.4-2.4-3.2-4.3-5.6-5.7-2.4-1.4-5.2-2.1-8.4-2.1s-6,.7-8.4,2.1c-2.4,1.4-4.3,3.3-5.7,5.7-1.4,2.4-2.1,5.2-2.1,8.3s.7,5.8,2.1,8.2c1.4,2.5,3.3,4.4,5.7,5.8,2.4,1.4,5.2,2.2,8.4,2.2Z"/>
    <path class="st1" d="M469.7,190.7v-81.5h14.7v33.8c1.8-3,4.4-5.4,7.6-7.2,3.3-1.8,7-2.7,11-2.7,6.9,0,12.3,2.2,16.1,6.6,3.8,4.4,5.7,10.8,5.7,19.3v31.6h-14.6v-30.2c0-4.8-1-8.5-2.9-11-1.9-2.5-4.9-3.8-9-3.8s-7.4,1.4-10.1,4.2c-2.6,2.8-4,6.8-4,11.8v29h-14.7Z"/>
    <path class="st1" d="M555.3,190.7c-3.8,0-7-.4-9.6-1.3-2.6-.9-4.5-2.6-5.8-5.1-1.3-2.5-1.9-6.2-1.9-10.9v-26.5h-9.6v-12.3h9.6v-15h14.7v15h14.1v12.3h-14.1v24.7c0,1.9.2,3.3.6,4.2.4.9,1.1,1.6,2.1,1.9,1.1.3,2.5.5,4.3.5h6.8v12.6h-11.2Z"/>
  </g>
  <g>
    <path class="st4" d="M958.6,190.7v-79.2h27.3c9.3,0,16.9,1.6,22.9,4.9s10.4,7.9,13.4,13.8c2.9,5.9,4.4,12.9,4.4,20.9s-1.5,15-4.4,20.9c-2.9,5.9-7.4,10.5-13.4,13.8s-13.6,4.9-22.9,4.9h-27.3ZM973.3,178.2h11.8c6.6,0,11.9-1.1,15.7-3.2,3.8-2.1,6.5-5.2,8.2-9.3,1.7-4,2.5-8.9,2.5-14.5s-.8-10.4-2.5-14.5c-1.7-4.1-4.4-7.2-8.2-9.4-3.8-2.2-9-3.3-15.7-3.3h-11.8v54.2Z"/>
    <path class="st4" d="M1050.6,192.1c-4.2,0-7.9-.8-10.9-2.3-3.1-1.5-5.4-3.5-7-6.1-1.6-2.6-2.4-5.4-2.4-8.5,0-5.9,2.1-10.4,6.3-13.6,4.2-3.2,9.8-4.8,16.6-4.8s6,.2,8.4.7c2.3.5,4.3.9,5.8,1.5v-2.7c0-3.9-1.1-6.8-3.3-8.6-2.2-1.8-5.1-2.7-8.7-2.7s-4.7.5-6.7,1.5c-2,1-3.2,2.8-3.7,5.4h-13.9c.5-4,1.8-7.4,4.1-10.1,2.3-2.8,5.1-4.8,8.7-6.3,3.5-1.4,7.4-2.2,11.6-2.2,8.4,0,14.9,2,19.6,6,4.7,4,7.1,9.7,7.1,17v12.7c0,2.9.2,5,.5,6.3s.9,2.2,1.6,2.6c.8.4,1.8.6,3.1.6h.5v12.3h-3.2c-4,0-7.3-.5-10-1.6-2.6-1.1-4.6-3.1-5.8-6.2-1.9,2.6-4.4,4.8-7.5,6.6-3.1,1.7-6.7,2.6-10.9,2.6ZM1053.9,180.9c2.4,0,4.5-.5,6.2-1.6,1.7-1.1,3.1-2.6,4.2-4.5,1.1-1.9,1.9-4,2.4-6.3-1.6-.5-3.4-.9-5.5-1.3-2.1-.4-4.2-.6-6.3-.6s-5.3.7-7.1,2c-1.8,1.3-2.7,3.2-2.7,5.5s.8,3.7,2.3,5c1.5,1.3,3.7,1.9,6.4,1.9Z"/>
    <path class="st4" d="M1095.3,190.7v-56.1h14.7v8.6c1.4-2.9,3.3-5.1,5.5-6.7,2.3-1.6,4.9-2.4,7.8-2.4h7.1v13.1h-8.6c-2.7,0-5,.7-6.7,2.2-1.8,1.4-3.1,3.6-3.9,6.4-.8,2.9-1.2,6.4-1.2,10.6v24.3h-14.7Z"/>
    <path class="st4" d="M1138.3,190.7v-81.5h14.7v81.5h-14.7ZM1152.1,174.8l-6.7-8.9,27.9-31.2h17.2l-38.5,40.2ZM1176.4,190.7l-21.6-27.9,8.9-8.8,30.7,36.8h-18Z"/>
  </g>
  <path class="st4" d="M772.1,71c-13,42.7,11.3,87.8,54,100.8,15.2,4.6,31.5,4.6,46.8,0-13,42.7-58.1,66.7-100.8,53.8-42.7-13-66.7-58.1-53.8-100.8,7.8-25.7,28-45.9,53.8-53.8h0Z"/>
</svg>